# xmcd
#
# Track frame offsets: 
#        150
#        12666
#        25992
#        36858
#        54285
#        66918
#        81972
#        94491
#        106762
#        121106
#        132684
#        143831
#        157403
#        167900
#        179416
#        191294
#
# Disc length: 2705 seconds
#
# Revision: 0
# Processed by: cddbd v1.5.2PL0 Copyright (c) Steve Scherf et al.
# Submitted via: ExactAudioCopy v0.95b4
#
DISCID=e50a8f10
DTITLE=Eddy Arnold - The Best of Eddy Arnold Vol. 3
DYEAR=1986
DGENRE=Classic Country
TTITLE0=It's Such a Pretty World Today
TTITLE1=Release Me
TTITLE2=I Can't Stop Loving You
TTITLE3=Honey
TTITLE4=Come Live With Me and Be My Love
TTITLE5=Gone
TTITLE6=Cold, Cold Heart
TTITLE7=I Don't Hurt Anymore
TTITLE8=That's How Much I Love You
TTITLE9=Welcome to My World
TTITLE10=Somebody Like Me
TTITLE11=The Tip Of My Fingers
TTITLE12=Here Comes Heaven
TTITLE13=Careless Love
TTITLE14=I Love You So Much It Hurts
TTITLE15=Have I Told You Lately That I Love You
EXTD=
EXTT0=
EXTT1=
EXTT2=
EXTT3=
EXTT4=
EXTT5=
EXTT6=
EXTT7=
EXTT8=
EXTT9=
EXTT10=
EXTT11=
EXTT12=
EXTT13=
EXTT14=
EXTT15=
PLAYORDER=
